#!OML:ASF F:\VICON\USERDATA\INSTALL\rory3\rory3.ASF
:FULLY-SPECIFIED
:DEGREES
27
root 1.1575915108594108 18.09928446751397 -5.465947080153429 -2.632318278348092 -1.8952517720578799 2.068076294824078
lfemur -4.099617634556092 -0.9079394103406018 -25.599434125066715
ltibia 24.52090698643182
lfoot -11.814005399433853 2.3332734168991145
ltoes 2.676869183803626
rfemur -24.07855437311834 0.1902795626297067 19.9545236918384
rtibia 70.96326016108293
rfoot -9.55269522913867 -3.4117927126644845
rtoes 3.926315644456032
lowerback 10.729139596655484 0.20760409146605202 -1.7569273593817554
upperback 0.6510896413154953 0.12443115857029619 0.7969947003724042
thorax -4.9747004758205655 0.12367164560350086 2.140381873180003
lowerneck -15.700444189056926 -2.7136599867607125 -1.88067361165829
upperneck 22.232363524524622 -3.3716891193558522 0.2144359801695691
head 9.782274842738218 -1.6884904481169065 0.020825837453930657
lclavicle -1.9512236843972408e-15 9.086248169821754e-16
lhumerus -30.09398365185654 -0.9810589680016477 83.72213536072472
lradius 24.391811139052717
lwrist 4.173507373461693
lhand -27.52577739437733 22.471900161138574
lfingers 7.12502
lthumb -1.2816332575285687 52.00907875626055
rclavicle -1.959287098934582e-15 9.030921029947324e-16
rhumerus -30.141706031671443 -22.053336052187976 -79.15923248369283
rradius 22.788324401366754
rwrist 7.944549809644831
rhand -17.183391926604568 22.551204794504123
rfingers 7.12502
rthumb 9.130868243558645 -7.698146186436245
28
root 1.1391877643584059 18.037742590404015 -4.7923374323524754 -2.312311238666331 -1.4456460078725857 2.6796405321667733
lfemur -2.2741553375530437 -1.0190093415359964 -26.44425491032738
ltibia 24.208951873955677
lfoot -13.574580046106066 2.735359995957947
ltoes 3.722879766028577
rfemur -27.6078322151727 0.8090170687087128 19.091416514330437
rtibia 66.16202491114063
rfoot -11.841595464863712 -4.077761979697168
rtoes 0.3069669360405016
lowerback 10.718836773372246 -0.03361427465975164 -2.2959625877592265
upperback 0.6666034974705217 -0.3437629510625353 0.7621801828816132
thorax -5.04114765020526 -0.0954768670950018 2.7689014256811437
lowerneck -15.994035159149629 -2.7510273045155555 -2.3864640380531945
upperneck 22.0005394209305 -3.387848998585494 0.5440561562957178
head 9.731322939818412 -1.6832814409456347 0.1425144502266037
lclavicle -1.950794075604678e-15 9.09021794175712e-16
lhumerus -27.84200253650278 -2.4620773237376037 83.74229396400031
lradius 25.856659656511702
lwrist 5.000770878517544
lhand -27.563522082166664 22.349624457856045
lfingers 7.12502
lthumb -1.2803964682858893 51.97033862224207
rclavicle -1.955620019227998e-15 9.06400745364161e-16
rhumerus -30.8710324849156 -22.604606659254806 -78.58133864679507
rradius 22.892523820152835
rwrist 7.85192040766621
rhand -17.18475457760561 22.080643442223803
rfingers 7.12502
rthumb 9.210473805462083 -8.054313502717207
29
root 1.1100971064272758 18.002280486400718 -3.9308521871821114 -2.0882799599140345 -1.8043259271523546 2.977352836538459
lfemur -0.18700582643289287 -0.48812019904481363 -26.815761337804023
ltibia 22.91586099451478
lfoot -14.512667210270632 3.222465533712298
ltoes 3.5557218158802253
rfemur -29.657726408236233 1.8196130137502733 18.296083552902978
rtibia 58.31072950912532
rfoot -11.018606460679035 -6.678330832885193
rtoes 0.13478708127457661
lowerback 10.751386844307131 -0.010912744766833682 -2.5450867890767777
upperback 0.8290044364811808 -0.31852176986794345 0.7596811970839357
thorax -4.937264726582103 -0.059861521788985184 3.0023774766376383
lowerneck -16.1109209776931 -2.7712464918091415 -2.589131942834654
upperneck 21.93936026141068 -3.406188059533023 0.7314137856017884
head 9.76603003231247 -1.6820213767229546 0.20635780229279005
lclavicle -1.951503247118885e-15 9.083686474079991e-16
lhumerus -25.605654987586092 -3.42527048070397 83.47880941728829
lradius 27.243947334878726
lwrist 6.423186543756026
lhand -27.818813102969507 22.9652785026137
lfingers 7.12502
lthumb -1.3142143598102443 52.62571934559971
rclavicle -1.9569884567532877e-15 9.051939757688364e-16
rhumerus -31.63720898925068 -23.10490021174245 -78.06316331705487
rradius 23.067134105825353
rwrist 7.200429130401152
rhand -17.011941191856437 21.867567636100343
rfingers 7.12502
rthumb 9.372734274017184 -8.560992326286389
30
root 1.071900083889577 17.972491397195753 -3.0661474798013657 -1.7335282692739375 -1.7341324989103817 3.295951926994278
lfemur 2.048976392907152 0.014399823028728331 -26.98632221052293
ltibia 20.624133122626038
lfoot -14.757020714666094 3.124288999651812
ltoes 3.146952831776456
rfemur -30.160941792420008 3.1853581226347822 17.132179507931397
rtibia 47.72645171209187
rfoot -9.690974737515749 -9.67003680339495
rtoes 0.8883013942747024
lowerback 10.507361070173278 -0.13409650576950405 -3.0412591066720367
upperback 0.9176375049212786 -0.5609421794819587 0.7679681974440419
thorax -4.868864017080205 -0.16176442976022032 3.244509687419231
lowerneck -16.306981621456416 -2.7761792970158234 -2.72479398770022
upperneck 21.786195898451318 -3.4004932243496246 0.8513427701196333
head 9.731702265667812 -1.672385150781386 0.2479689106060115
lclavicle -1.9517440341966585e-15 9.081472035911052e-16
lhumerus -23.633697258142995 -4.278203404244817 83.21833884223706
lradius 28.289196254219878
lwrist 7.2871502170863796
lhand -28.113114950054197 23.992303906302343
lfingers 7.12502
lthumb -1.5927096100964895 53.83331202746737
rclavicle -1.9547418030368928e-15 9.072755190523172e-16
rhumerus -32.17178888889666 -23.90773369045614 -77.41857606070612
rradius 23.108589300813563
rwrist 6.639719059489326
rhand -16.644500948584334 21.52833158839105
rfingers 7.12502
rthumb 9.840413562163095 -8.39125844235877
31
root 1.0186798610498071 17.963500829910306 -2.313602371767253 -1.2943959922724884 -1.5773863967868906 3.552237404976817
lfemur 4.179905700066241 0.44081511921456995 -27.02002234306086
ltibia 17.99169462740688
lfoot -14.255229858162625 2.3961962791743554
ltoes 1.1084167198065384
rfemur -29.636347232857634 4.974118182402427 15.71336066791206
rtibia 34.912654450145666
rfoot -7.737365566612743 -13.349590909166743
rtoes 0.09406150772239341
lowerback 10.050610686514597 -0.29219179785460603 -3.448414298994045
upperback 0.9265288192391306 -0.7967331959861463 0.7720564415735575
thorax -4.708342713281785 -0.27004778753653 3.4461723660121395
lowerneck -16.389398601135102 -2.757535311887043 -2.82559895231385
upperneck 21.604899372271316 -3.357045237230123 1.0166030741511887
head 9.655951089251772 -1.6456826669824223 0.31667828708754964
lclavicle -1.951468717328406e-15 9.08400292904535e-16
lhumerus -21.824899350696754 -4.697080916098641 82.90387855449157
lradius 29.228388873556295
lwrist 7.623131928393236
lhand -27.996388861918145 25.64845119883888
lfingers 7.12502
lthumb -1.608167856017057 55.360271024422886
rclavicle -1.956769865963629e-15 9.052444535158425e-16
rhumerus -32.75114515538509 -24.993448929770654 -76.56359557387752
rradius 22.826300446938742
rwrist 7.292744462657785
rhand -16.551518547690403 22.229414804631393
rfingers 7.12502
rthumb 9.972144872751993 -7.232242429640515
32
root 0.9552444820733534 17.925484751746247 -1.7591843176018216 -0.9642976479866889 -1.1411191755119705 3.859089928918815
lfemur 6.4865760164396935 0.7898450968235293 -26.88483367519798
ltibia 15.553966218194514
lfoot -13.936516329313534 1.309051790470846
ltoes -0.3971095155335651
rfemur -28.44472361921935 7.77034728927344 13.3766956827261
rtibia 22.642734210832657
rfoot -8.529237229823162 -17.878747570672903
rtoes -2.6770719548453914
lowerback 9.5235104391088 -0.5688045846783737 -4.1116988332276705
upperback 0.9243079176665354 -1.2077476572769035 0.7485569476961449
thorax -4.527651049685737 -0.4799821918153597 3.741438019141031
lowerneck -16.402836003207668 -2.712286871257502 -2.811776185227405
upperneck 21.674285884252505 -3.3054013925151255 0.9990772152252221
head 9.678971631426139 -1.6160065155090868 0.31703648905813403
lclavicle -1.9536183338185253e-15 9.064206974306928e-16
lhumerus -20.651544027954845 -4.77705467551507 82.5731722887211
lradius 30.053588563444592
lwrist 7.900967153035188
lhand -27.88321751381692 25.92301923148881
lfingers 7.12502
lthumb -1.5052344069554147 55.691603041880306
rclavicle -1.9570251699313126e-15 9.050180796388563e-16
rhumerus -33.243042652338765 -26.163065149648375 -75.65988493562598
rradius 22.468676296827063
rwrist 8.701009333611307
rhand -16.604965714792108 22.84595271326117
rfingers 7.12502
rthumb 9.87839814572465 -6.68428925051962
